<?xml version="1.0" encoding="utf-8"?>
<!-- Generator: Adobe Illustrator 16.0.4, SVG Export Plug-In . SVG Version: 6.00 Build 0)  -->
<!DOCTYPE svg PUBLIC "-//W3C//DTD SVG 1.1//EN" "http://www.w3.org/Graphics/SVG/1.1/DTD/svg11.dtd">
<svg version="1.1" id="Layer_1" xmlns="http://www.w3.org/2000/svg" xmlns:xlink="http://www.w3.org/1999/xlink" x="0px" y="0px"
	 width="248.413px" height="155.672px" viewBox="0 0 248.413 155.672" enable-background="new 0 0 248.413 155.672"
	 xml:space="preserve">
<g>
	<g>
		<path fill="#455560" d="M32.18,133.1c-6.608,0-11.594,4.853-11.594,11.286c0,6.435,4.986,11.286,11.594,11.286
			c6.61,0,11.594-4.852,11.594-11.286C43.774,137.953,38.79,133.1,32.18,133.1z M32.18,151.307c-4.051,0-7.226-3.04-7.226-6.921
			s3.174-6.92,7.226-6.92c4.053,0,7.228,3.039,7.228,6.92S36.233,151.307,32.18,151.307z"/>
		<path fill="#455560" d="M70.951,140.495c0-4.802-3.813-6.962-7.077-6.962H51.196v21.707h4.37v-17.342h8.309
			c2.707,0,2.707,2.012,2.707,2.597c0,1.535-0.949,2.68-2.555,2.68c-1.605,0-5.861,0-5.861,0l7.271,12.065h5.01l-5.629-8.567
			c0.9-0.002,0.903-0.003,0.945-0.009C67.69,146.455,70.951,145.282,70.951,140.495z"/>
		<path fill="#455560" d="M151.25,140.495c0-4.802-3.812-6.962-7.077-6.962h-12.679v21.707h4.369v-17.342h8.31
			c2.707,0,2.707,2.012,2.707,2.597c0,1.535-0.949,2.68-2.555,2.68c-1.604,0-5.861,0-5.861,0l7.271,12.065h5.01l-5.629-8.567
			c0.899-0.002,0.902-0.003,0.944-0.009C147.987,146.455,151.25,145.282,151.25,140.495z"/>
		<path fill="#455560" d="M167.481,133.1c-6.611,0-11.596,4.853-11.596,11.286c0,6.435,4.984,11.286,11.596,11.286
			c6.609,0,11.593-4.852,11.593-11.286C179.074,137.953,174.091,133.1,167.481,133.1z M167.481,151.307
			c-4.052,0-7.225-3.04-7.225-6.921s3.173-6.92,7.225-6.92c4.051,0,7.224,3.039,7.224,6.92S171.532,151.307,167.481,151.307z"/>
		<polygon fill="#455560" points="223.514,141.439 230.941,133.533 224.898,133.533 215.985,143.042 215.985,133.533 
			211.618,133.533 211.618,155.24 215.985,155.24 215.985,149.401 220.391,144.733 226.36,155.24 231.441,155.24 		"/>
		<polygon fill="#455560" points="0,155.24 4.37,155.24 4.37,146.138 10.037,146.138 12.671,141.906 12.671,141.77 4.37,141.77 
			4.37,137.898 15.347,137.898 18.052,133.553 18.052,133.533 0,133.533 		"/>
		<path fill="#455560" d="M90.874,147.137h3.659v2.398c-0.643,0.693-2.393,1.909-5.319,1.909c-4.957,0-7.537-3.564-7.537-6.949
			c0-3.498,2.253-7.219,7.619-7.219c3.1,0,5.008,1.105,5.963,2.057l0.65,0.637l2.114-3.396c-1.329-1.252-4.002-3.474-8.877-3.474
			c-6.748,0-11.837,4.84-11.837,11.259c0,7.349,5.912,11.305,11.624,11.305c4.499,0,7.734-1.688,9.843-4.368l0.127-0.184v-8.342
			H88.154L90.874,147.137z"/>
		<polygon fill="#455560" points="121.233,137.898 123.952,133.533 105.979,133.533 105.979,155.24 123.942,155.24 121.24,150.875 
			110.348,150.875 110.348,146.138 119.971,146.138 119.971,141.77 110.348,141.77 110.348,137.898 		"/>
		<path fill="#455560" d="M196.137,151.307c-5.027,0-7.741-3.483-7.741-6.759c0-4.601,3.612-7.082,7.011-7.082
			c3.696,0,6.039,1.955,7.04,2.79l0.407,0.336l2.305-3.702c-3.518-3.111-7.227-3.79-9.78-3.79c-6.364,0-11.352,5.03-11.352,11.448
			c0,6.963,5.799,11.124,11.405,11.124c5.284,0,7.922-1.608,9.772-3.366l-2.332-3.768
			C201.68,149.85,199.587,151.307,196.137,151.307z"/>
	</g>
	<polygon fill="#B0B7BC" points="91.949,66.539 127.161,4.486 135.376,32.626 104.248,87.068 	"/>
	<polygon fill="#455560" points="139.222,16.235 166.434,66.056 158.312,80.14 	"/>
	<polygon fill="#EBE72A" points="96.496,8.318 119.704,0 86.813,57.965 76.995,41.575 	"/>
	<polygon fill="#EBE72A" points="78.362,60.785 65.73,60.785 71.978,50.129 	"/>
	<polygon fill="#B0B7BC" points="65.008,69.484 83.574,69.484 108.085,110.476 89.252,110.476 	"/>
	<polygon fill="#455560" points="140.94,110.476 118.2,110.476 109.375,95.626 138.765,44.228 152.297,90.575 	"/>
</g>
<g>
	<path fill="#455560" d="M238.072,136.783v-2.867h-1.443v-0.383h3.472v0.383h-1.449v2.867H238.072z"/>
	<path fill="#455560" d="M240.678,136.783v-3.25h0.873l1.037,2.302c0.096,0.214,0.166,0.374,0.209,0.48
		c0.049-0.118,0.127-0.292,0.233-0.521l1.049-2.262h0.78v3.25H244.3v-2.721l-1.273,2.721h-0.522l-1.267-2.767v2.767H240.678z"/>
</g>
</svg>
